<?xml version="1.0" encoding="utf-8"?>
<!-- Generator: Adobe Illustrator 27.2.0, SVG Export Plug-In . SVG Version: 6.00 Build 0)  -->
<svg version="1.1" id="Layer_1" xmlns="http://www.w3.org/2000/svg" xmlns:xlink="http://www.w3.org/1999/xlink" x="0px" y="0px"
	 viewBox="0 0 512 512" style="enable-background:new 0 0 512 512;" xml:space="preserve">
<style type="text/css">
	.st0{display:none;fill:#1793D1;}
	.st1{fill:#FFFFFF;}
</style>
<path class="st0" d="M256,72c-14,35-23,57-39,91c10,11,22,23,41,36c-21-8-35-17-45-26c-21,43-53,103-117,220c50-30,90-48,127-55
	c-2-7-3-14-3-22v-1c1-33,18-58,38-56c20,1,36,29,35,62l-2,17c36,7,75,26,125,54l-27-50c-13-10-27-23-55-38c19,5,33,11,44,17
	c-86-159-93-180-122-250V72z"/>
<path class="st1" d="M256,1.6c-22.4,55.7-36.8,90.6-62.4,144.7c16,17.5,35.2,36.6,65.6,57.2c-33.6-12.7-56-27-72-41.3
	C153.6,230.6,102.4,326,0,512c80-47.7,144-76.3,203.2-87.5c-3.2-11.1-4.8-22.3-4.8-35V388c1.6-52.5,28.8-92.2,60.8-89
	c32,1.6,57.6,46.1,56,98.6l-3.2,27c57.6,11.1,120,41.3,200,85.9l-43.2-79.5c-20.8-15.9-43.2-36.6-88-60.4c30.4,8,52.8,17.5,70.4,27
	C313.6,144.7,302.4,111.3,256,0V1.6z"/>
</svg>
